<?xml version="1.0" encoding="UTF-8"?>
<svg id="Layer_1" xmlns="http://www.w3.org/2000/svg" version="1.1" viewBox="0 0 612 350.2">
  <!-- Generator: Adobe Illustrator 30.0.0, SVG Export Plug-In . SVG Version: 2.1.1 Build 123)  -->
  <defs>
    <style>
      .st0 {
        fill: #fac35c;
      }

      .st1 {
        fill: #40bcd9;
      }

      .st2 {
        fill: #77c59a;
      }

      .st3 {
        fill: #77c699;
      }

      .st4 {
        fill: #f38b95;
      }

      .st5 {
        fill: #3768af;
      }

      .st6 {
        fill: #d26092;
      }

      .st7 {
        fill: #b7679d;
      }
    </style>
  </defs>
  <g>
    <g>
      <path class="st5" d="M311.8,124.2c.3.5.5,1,.5,1.5,0,.4,0,1.1,0,1.9v30.5c0,2.5-.7,4-2.1,4.4-.7.2-1.6.3-2.6.3s-1.9,0-2.5-.3c-.6-.2-1.1-.4-1.4-.7-.3-.3-.6-.6-.8-1.1-.2-.6-.3-1.6-.3-2.9v-18.4c-.9,1.1-2.3,2.9-4,5.4s-2.9,4-3.3,4.6c-.5.6-.8,1.1-1,1.3-.2.2-.6.6-1.3,1-.7.4-1.5.6-2.3.6s-1.6-.2-2.3-.6c-.7-.4-1.2-.8-1.5-1.1l-.4-.6c-.7-.9-2.2-2.9-4.3-5.8-2.2-3-3.3-4.6-3.5-4.8v18.5c0,.8,0,1.5,0,1.9,0,.4-.2.9-.5,1.4-.5,1-2,1.5-4.3,1.5s-3.6-.5-4.2-1.5c-.3-.5-.5-1-.5-1.4,0-.4,0-1.1,0-2v-30.5c0-.8,0-1.5,0-1.9,0-.4.2-.9.5-1.5.5-1,2-1.4,4.3-1.4s1.8.1,2.6.4c.7.2,1.2.5,1.4.7l.3.3,12.5,16.4c6.2-8.2,10.4-13.7,12.5-16.3.6-1,2.1-1.5,4.4-1.5s3.7.5,4.3,1.5Z"/>
      <path class="st5" d="M326.7,127.5c0-.8,0-1.5,0-1.9,0-.4.2-.9.5-1.5.5-1,1.9-1.5,4.3-1.5s4.1.7,4.6,2c.2.6.3,1.6.3,2.9v30.5c0,.9,0,1.5,0,1.9,0,.4-.2.9-.5,1.4-.5,1-1.9,1.5-4.3,1.5s-4.1-.7-4.5-2.1c-.2-.6-.3-1.5-.3-2.8v-30.5Z"/>
      <path class="st5" d="M371.6,138.6h9.7c2,0,3.2.6,3.6,1.5.4.7.5,1.7.5,3.1v12.1c0,1.2-.5,2.3-1.5,3.3-3.1,3.2-7.7,4.8-13.8,4.8s-10.2-2.1-14.2-6.2c-4-4.1-6-9.1-6-14.9s2-10.7,6.1-14.6c4.1-3.9,8.9-5.8,14.5-5.8s8.4,1.4,12.2,4.3c1,.7,1.5,1.5,1.5,2.4s-.4,1.9-1.3,3.1c-1.4,1.9-2.7,2.9-3.9,2.9s-1.8-.5-3.3-1.5c-1.5-1-3.4-1.5-5.5-1.5s-5.3,1-7.4,2.9c-2.2,2-3.2,4.5-3.2,7.7s1.1,5.9,3.3,8.1c2.2,2.2,4.7,3.3,7.5,3.3s3.8-.3,5.4-1v-6h-4.3c-1.1,0-1.9-.1-2.4-.4-.5-.3-.8-.7-.9-1.3-.1-.6-.2-1.3-.2-2.3s0-1.7.2-2.3c.2-.6.5-1,.9-1.2.7-.3,1.5-.5,2.6-.5Z"/>
      <path class="st5" d="M424.6,124.2c.3-.5.8-.9,1.5-1.2.7-.2,1.6-.3,2.6-.3s1.9,0,2.5.3c.6.2,1.1.4,1.4.7.3.3.6.6.8,1.1.2.6.3,1.6.3,2.9v30.5c0,.8,0,1.5,0,1.9,0,.4-.2.9-.5,1.5-.5,1-1.9,1.5-4.3,1.5s-4.1-.7-4.5-2c-.2-.6-.3-1.6-.3-2.9v-11.1h-14.5v11.2c0,.8,0,1.5,0,1.9,0,.4-.2.9-.5,1.5-.5,1-1.9,1.5-4.3,1.5s-4.1-.7-4.5-2c-.2-.6-.3-1.6-.3-2.9v-30.5c0-.8,0-1.5,0-1.9,0-.4.2-.9.5-1.5.5-1,1.9-1.5,4.3-1.5s4.1.7,4.6,2c.2.6.3,1.6.3,2.9v11.2h14.5v-11.3c0-.8,0-1.5,0-1.9,0-.4.2-.9.5-1.5Z"/>
      <path class="st5" d="M450.6,122.6h30.5c1.2,0,2,.1,2.6.4.5.3.9.7,1.1,1.3.2.6.3,1.4.3,2.3s0,1.7-.3,2.3c-.2.6-.5,1-.9,1.2-.7.3-1.6.5-2.8.5h-10.5v27.6c0,.8,0,1.5,0,1.9,0,.4-.2.9-.5,1.4-.3.5-.8.9-1.5,1.1-.7.2-1.6.3-2.7.3s-2-.1-2.7-.3c-.7-.2-1.2-.6-1.4-1.1-.3-.5-.4-1-.5-1.4,0-.4,0-1.1,0-1.9v-27.6h-10.5c-1.2,0-2-.1-2.6-.4s-.9-.7-1.1-1.3c-.2-.6-.3-1.4-.3-2.3s0-1.7.3-2.3c.2-.6.5-1,.9-1.2.7-.3,1.6-.5,2.8-.5Z"/>
      <path class="st5" d="M529.9,123.4c1.8,1.2,2.7,2.5,2.7,3.6s-.4,1.7-1.3,2.9l-11.9,17.7v10.5c0,.8,0,1.5,0,1.9,0,.4-.2.9-.5,1.5-.3.5-.8.9-1.5,1.2-.7.2-1.6.3-2.8.3s-2.1-.1-2.8-.3c-.7-.2-1.2-.6-1.5-1.2-.3-.6-.5-1.1-.5-1.5,0-.4,0-1.1,0-1.9v-10.4l-11.9-17.7c-.8-1.2-1.3-2.2-1.3-2.9,0-1.2.8-2.3,2.4-3.4,1.6-1.1,2.8-1.6,3.5-1.6s1.2.1,1.6.4c.6.4,1.3,1.2,2,2.3l8.5,13.6,8.5-13.6c.7-1.1,1.3-1.8,1.8-2.2.5-.3,1.1-.5,1.8-.5s1.7.5,3.2,1.4Z"/>
    </g>
    <g>
      <path class="st5" d="M269.4,213.4c-.9-1.1-1.3-2-1.3-2.8s.7-1.9,2.1-3.3c.8-.8,1.7-1.2,2.6-1.2s2.2.8,3.8,2.5c.5.6,1.1,1.1,2,1.6.9.5,1.6.8,2.4.8,3.1,0,4.6-1.2,4.6-3.7s-.4-1.4-1.3-1.9c-.8-.5-1.9-.9-3.1-1.1-1.3-.2-2.6-.6-4-1.1-1.4-.5-2.8-1.1-4-1.8-1.3-.7-2.3-1.8-3.1-3.3-.8-1.5-1.3-3.3-1.3-5.4s1.1-5.4,3.2-7.6c2.2-2.2,5.1-3.2,8.8-3.2s3.8.3,5.4.8c1.6.5,2.8,1,3.4,1.6l1.2.9c1,1,1.5,1.8,1.5,2.4s-.4,1.6-1.2,2.7c-1.1,1.6-2.3,2.5-3.5,2.5s-1.5-.3-2.6-1c0,0-.3-.2-.6-.5-.3-.3-.5-.5-.8-.6-.7-.4-1.6-.6-2.6-.6s-2,.3-2.7.8c-.7.5-1.1,1.2-1.1,2.1s.4,1.6,1.3,2.2c.8.6,1.9.9,3.1,1.1,1.2.2,2.6.5,4.1.9s2.8.9,4.1,1.5c1.2.6,2.3,1.6,3.1,3.1.8,1.5,1.3,3.3,1.3,5.4s-.4,4-1.3,5.6c-.9,1.6-2,2.9-3.4,3.8-2.7,1.7-5.5,2.6-8.5,2.6s-3-.2-4.4-.6c-1.4-.4-2.5-.8-3.4-1.4-1.7-1.1-3-2.1-3.7-3.1l-.4-.5Z"/>
      <path class="st5" d="M354.8,183.7c.3.5.4.9.5,1.3,0,.4,0,1,0,1.7v27.4c0,2.3-.6,3.6-1.9,4-.6.2-1.4.3-2.4.3s-1.7,0-2.3-.2c-.6-.2-1-.4-1.3-.6-.3-.2-.5-.6-.7-1-.2-.6-.2-1.4-.2-2.6v-16.5c-.8,1-2,2.6-3.6,4.9-1.6,2.2-2.6,3.6-3,4.2-.4.6-.7.9-.9,1.2-.2.2-.6.5-1.2.9-.6.4-1.3.6-2.1.6s-1.4-.2-2-.5c-.6-.3-1-.7-1.3-1l-.4-.5c-.7-.8-2-2.6-3.9-5.3-1.9-2.7-3-4.1-3.2-4.3v16.6c0,.8,0,1.3,0,1.7,0,.4-.2.8-.5,1.3-.5.9-1.8,1.3-3.8,1.3s-3.3-.4-3.7-1.3c-.3-.5-.4-.9-.5-1.3s0-1,0-1.8v-27.4c0-.8,0-1.3,0-1.7,0-.4.2-.8.5-1.3.5-.9,1.8-1.3,3.8-1.3s1.7.1,2.3.3c.6.2,1.1.4,1.3.7l.3.3,11.2,14.7c5.6-7.4,9.3-12.3,11.2-14.7.6-.9,1.9-1.3,4-1.3s3.4.4,3.8,1.3Z"/>
      <path class="st5" d="M378,186.7c0-.8,0-1.3,0-1.7,0-.4.2-.8.5-1.3.5-.9,1.7-1.3,3.8-1.3s3.7.6,4.1,1.8c.2.6.2,1.4.2,2.6v27.4c0,.8,0,1.4,0,1.7s-.2.8-.5,1.3c-.5.9-1.7,1.3-3.8,1.3s-3.7-.6-4-1.9c-.2-.5-.3-1.4-.3-2.5v-27.4Z"/>
      <path class="st5" d="M418.2,211.2h13.4c1.1,0,1.9.1,2.4.4.5.2.8.6,1,1.2.2.5.2,1.2.2,2.1s0,1.6-.2,2.1c-.2.5-.4.9-.8,1.1-.6.3-1.5.5-2.6.5h-17.8c-2.3,0-3.7-.6-4-1.9-.2-.5-.3-1.4-.3-2.5v-27.4c0-.8,0-1.3,0-1.7,0-.4.2-.8.5-1.3.5-.9,1.7-1.3,3.8-1.3s3.7.6,4.1,1.8c.2.6.2,1.4.2,2.6v24.5Z"/>
      <path class="st5" d="M465.9,209.8h15.2c.8,0,1.3,0,1.7,0s.8.2,1.3.5c.9.5,1.3,1.7,1.3,3.8s-.6,3.7-1.8,4c-.6.2-1.4.3-2.6.3h-19.5c-2.3,0-3.7-.6-4-1.9-.2-.5-.3-1.4-.3-2.5v-27.4c0-1.7.3-2.8.9-3.4.6-.6,1.8-.9,3.6-.9h19.4c.8,0,1.3,0,1.7,0,.4,0,.8.2,1.3.5.9.5,1.3,1.7,1.3,3.8s-.6,3.7-1.8,4c-.6.2-1.4.3-2.6.3h-15.1v5h9.8c.8,0,1.3,0,1.7,0,.4,0,.8.2,1.3.5.9.5,1.3,1.7,1.3,3.8s-.6,3.7-1.9,4c-.6.2-1.4.3-2.6.3h-9.7v5Z"/>
      <path class="st5" d="M507.9,213.4c-.9-1.1-1.3-2-1.3-2.8s.7-1.9,2.1-3.3c.8-.8,1.7-1.2,2.6-1.2s2.2.8,3.8,2.5c.5.6,1.1,1.1,2,1.6.9.5,1.6.8,2.4.8,3.1,0,4.6-1.2,4.6-3.7s-.4-1.4-1.3-1.9c-.8-.5-1.9-.9-3.1-1.1-1.3-.2-2.6-.6-4-1.1-1.4-.5-2.8-1.1-4-1.8-1.3-.7-2.3-1.8-3.1-3.3-.8-1.5-1.3-3.3-1.3-5.4s1.1-5.4,3.2-7.6,5.1-3.2,8.8-3.2,3.8.3,5.4.8c1.6.5,2.8,1,3.4,1.6l1.2.9c1,1,1.5,1.8,1.5,2.4s-.4,1.6-1.2,2.7c-1.1,1.6-2.3,2.5-3.5,2.5s-1.5-.3-2.6-1c0,0-.3-.2-.6-.5-.3-.3-.5-.5-.8-.6-.7-.4-1.6-.6-2.6-.6s-2,.3-2.7.8c-.7.5-1.1,1.2-1.1,2.1s.4,1.6,1.3,2.2c.8.6,1.9.9,3.1,1.1,1.2.2,2.6.5,4.1.9s2.8.9,4.1,1.5c1.2.6,2.3,1.6,3.1,3.1.8,1.5,1.3,3.3,1.3,5.4s-.4,4-1.3,5.6c-.9,1.6-2,2.9-3.4,3.8-2.7,1.7-5.5,2.6-8.5,2.6s-3-.2-4.4-.6c-1.4-.4-2.5-.8-3.4-1.4-1.7-1.1-3-2.1-3.7-3.1l-.4-.5Z"/>
    </g>
    <g>
      <path class="st1" d="M271,241.2h5.9c3.1,0,5.8,1.1,8.1,3.4,2.3,2.2,3.5,5,3.5,8.2s-1.1,6-3.4,8.4c-2.3,2.3-5.1,3.5-8.3,3.5h-5.8c-1.3,0-2.1-.3-2.4-.8-.3-.4-.4-1.1-.4-2v-17.8c0-.5,0-.9,0-1.1s.1-.5.3-.8c.3-.6,1.1-.9,2.5-.9ZM281,257.2c1.2-1.1,1.9-2.6,1.9-4.3s-.6-3.2-1.8-4.3c-1.2-1.2-2.6-1.7-4.2-1.7h-3.1v12.1h3.1c1.5,0,2.9-.6,4.2-1.7Z"/>
      <path class="st1" d="M307.1,259h9.8c.5,0,.9,0,1.1,0s.5.1.8.3c.6.3.9,1.1.9,2.5s-.4,2.4-1.2,2.6c-.4.1-.9.2-1.7.2h-12.6c-1.5,0-2.4-.4-2.6-1.2-.1-.3-.2-.9-.2-1.6v-17.8c0-1.1.2-1.8.6-2.2.4-.4,1.2-.6,2.3-.6h12.6c.5,0,.9,0,1.1,0s.5.1.8.3c.6.3.9,1.1.9,2.5s-.4,2.4-1.2,2.6c-.4.1-.9.2-1.7.2h-9.8v3.2h6.3c.5,0,.9,0,1.1,0s.5.1.8.3c.6.3.9,1.1.9,2.5s-.4,2.4-1.2,2.6c-.4.1-.9.2-1.7.2h-6.3v3.2Z"/>
      <path class="st1" d="M347.9,242.2c.2-.4.5-.6.9-.8s.9-.2,1.5-.2,1.1,0,1.5.2c.4.1.6.2.8.4.2.1.3.4.4.7.1.3.2.9.2,1.6v17.7c0,.5,0,.9,0,1.1,0,.2-.1.5-.3.8-.3.6-1.1.9-2.5.9s-1.4,0-1.7-.2c-.3-.1-.6-.3-.8-.6-4.8-6.4-7.9-10.6-9.5-12.5v10.5c0,.5,0,.9,0,1.1,0,.2-.1.5-.3.8-.3.6-1.1.9-2.5.9s-2.1-.3-2.4-.9c-.2-.3-.3-.6-.3-.9s0-.6,0-1.1v-17.8c0-.8.1-1.4.3-1.8.2-.4.5-.6.9-.8s.9-.2,1.6-.2,1.1,0,1.5.2c.4.1.6.3.8.4,0,0,.3.3.7.8,4.5,6.1,7.5,10.1,9,12.1v-10.8c0-.8.1-1.4.3-1.8Z"/>
      <path class="st1" d="M368.1,241.2h17.8c.7,0,1.2,0,1.5.2.3.2.5.4.6.8.1.3.2.8.2,1.3s0,1-.2,1.3c-.1.3-.3.6-.5.7-.4.2-.9.3-1.6.3h-6.1v16.1c0,.5,0,.9,0,1.1,0,.2-.1.5-.3.8-.2.3-.4.5-.8.7-.4.1-.9.2-1.6.2s-1.2,0-1.6-.2c-.4-.1-.7-.3-.8-.7-.2-.3-.3-.6-.3-.8,0-.2,0-.6,0-1.1v-16h-6.1c-.7,0-1.2,0-1.5-.2s-.5-.4-.6-.8c-.1-.3-.2-.8-.2-1.3s0-1,.2-1.3c.1-.3.3-.6.5-.7.4-.2.9-.3,1.6-.3Z"/>
      <path class="st1" d="M400.8,244c0-.5,0-.9,0-1.1,0-.2.1-.5.3-.8.3-.6,1.1-.9,2.5-.9s2.4.4,2.7,1.2c.1.4.2.9.2,1.7v17.8c0,.5,0,.9,0,1.1,0,.2-.1.5-.3.8-.3.6-1.1.9-2.5.9s-2.4-.4-2.6-1.2c-.1-.3-.2-.9-.2-1.6v-17.8Z"/>
      <path class="st1" d="M420.2,261.3c-.6-.7-.8-1.3-.8-1.8s.5-1.3,1.4-2.2c.5-.5,1.1-.8,1.7-.8s1.4.5,2.5,1.6c.3.4.7.7,1.3,1,.6.3,1.1.5,1.5.5,2,0,3-.8,3-2.4s-.3-.9-.8-1.2c-.5-.3-1.2-.6-2-.7-.8-.1-1.7-.4-2.6-.7-.9-.3-1.8-.7-2.6-1.2s-1.5-1.2-2-2.1c-.5-1-.8-2.1-.8-3.5s.7-3.5,2.1-4.9,3.3-2.1,5.7-2.1,2.4.2,3.5.5c1.1.3,1.8.7,2.2,1l.8.6c.7.6,1,1.1,1,1.6s-.3,1-.8,1.8c-.7,1.1-1.5,1.6-2.2,1.6s-1-.2-1.7-.6c0,0-.2-.1-.4-.3-.2-.2-.3-.3-.5-.4-.4-.3-1-.4-1.7-.4s-1.3.2-1.7.5c-.5.3-.7.8-.7,1.4s.3,1.1.8,1.4c.5.4,1.2.6,2,.7.8.1,1.7.3,2.7.6,1,.3,1.8.6,2.7,1,.8.4,1.5,1,2,2,.5.9.8,2.1.8,3.5s-.3,2.6-.8,3.7c-.6,1.1-1.3,1.9-2.2,2.4-1.7,1.1-3.6,1.7-5.5,1.7s-1.9-.1-2.8-.4-1.6-.5-2.2-.9c-1.1-.7-1.9-1.3-2.4-2l-.3-.4Z"/>
      <path class="st1" d="M449.3,241.2h17.8c.7,0,1.2,0,1.5.2.3.2.5.4.6.8.1.3.2.8.2,1.3s0,1-.2,1.3-.3.6-.5.7c-.4.2-.9.3-1.6.3h-6.1v16.1c0,.5,0,.9,0,1.1,0,.2-.1.5-.3.8-.2.3-.4.5-.8.7-.4.1-.9.2-1.6.2s-1.2,0-1.6-.2c-.4-.1-.7-.3-.8-.7-.2-.3-.3-.6-.3-.8,0-.2,0-.6,0-1.1v-16h-6.1c-.7,0-1.2,0-1.5-.2-.3-.2-.5-.4-.6-.8-.1-.3-.2-.8-.2-1.3s0-1,.2-1.3c.1-.3.3-.6.5-.7.4-.2.9-.3,1.6-.3Z"/>
      <path class="st1" d="M499.9,260.7c.3.8.5,1.3.5,1.7,0,.8-.7,1.5-2,2-.7.3-1.2.4-1.6.4s-.8-.1-1-.3c-.3-.2-.5-.4-.6-.6-.2-.4-1-2.3-2.5-5.8h-1c0,0-4,0-4,0v3.6c0,.5,0,.9,0,1.1,0,.2-.1.5-.3.8-.3.6-1.1.9-2.5.9s-2.4-.4-2.6-1.2c-.1-.4-.2-.9-.2-1.7v-17.7c0-.5,0-.9,0-1.1,0-.2.1-.5.3-.8.3-.6,1.1-.9,2.5-.9h6.9c1.9,0,3.7.7,5.5,2,.9.7,1.6,1.6,2.1,2.7.6,1.1.8,2.4.8,3.8,0,2.4-.8,4.4-2.4,5.9.5,1.1,1.2,2.8,2.2,5ZM487.6,252.5h4.1c.6,0,1.2-.2,1.9-.7.6-.5.9-1.2.9-2.1s-.3-1.6-.9-2.1c-.6-.5-1.3-.7-1.9-.7h-4v5.7Z"/>
      <path class="st1" d="M530.9,241.7c1,.7,1.6,1.4,1.6,2.1s-.2,1-.7,1.7l-6.9,10.3v6.1c0,.5,0,.9,0,1.1,0,.2-.1.5-.3.8-.2.3-.5.5-.9.7-.4.1-.9.2-1.6.2s-1.2,0-1.6-.2c-.4-.1-.7-.4-.9-.7-.2-.3-.3-.6-.3-.9,0-.2,0-.6,0-1.1v-6l-6.9-10.3c-.5-.7-.7-1.3-.7-1.7,0-.7.5-1.3,1.4-2s1.6-.9,2-.9.7,0,1,.3c.4.2.7.7,1.2,1.3l5,7.9,5-7.9c.4-.6.8-1.1,1.1-1.3.3-.2.6-.3,1-.3s1,.3,1.9.8Z"/>
    </g>
    <path class="st1" d="M188,269.7c-2.1,0-5.8-3.9-.2-8.1.9-.7,1.8-1.5,2.8-2.3,14.5-12.6,25.6-34.8,34.2-67.9,6.5-25,9.2-53.6.9-61.2l-.2-.2-.2-.2c-1.8-1.3-4.6-3.1-8.7-3.1s-9.4,2-18.5,6.6c-7.1,3.6-16,8-26.3,10.1-2,.4-4.1.6-6,.6-10.6,0-19-5.8-27.2-11.3-8.9-6.1-13.8-8.8-19.3-8.8s-6.5,1.1-10,3.3c-14,9.1-8.6,29.9-5.3,39.1s3.5,9.1,3.6,9.2c.5,1.1.6,2.2.3,3.4-.4,1.1-1.1,2-2.2,2.6-.6.3-1.3.5-2,.5-1.7,0-3.2-.9-3.9-2.4-.8-1.6-3.4-8.1-4.1-9.9-6-15.1-8.8-38.3,8.9-49.7,4.9-3.2,9.7-4.7,14.6-4.7,9.4,0,18.1,6,24.4,10.3,8.6,5.9,14.8,9.8,22.3,9.8s2.8-.1,4.2-.4c9.2-1.9,16.8-5.7,24.1-9.4,7.1-3.5,15.1-7.6,22.8-7.6s9.3,1.6,13.7,4.9c10.8,8.1,12.2,31.6,4,66-7,29.3-25.5,77.1-45.7,80.8-.3,0-.5,0-.8,0Z"/>
    <path class="st3" d="M146.9,268.2c-5.7,0-9-3.5-11.7-6.2-7.4-7.7-12.8-21.7-17.6-34-1.1-2.9-5-13-6.1-15.8-.8-2-.2-4.4,1.4-5.5.8-.5,1.7-.8,2.6-.8,1.8,0,3.4,1.1,4.1,2.7,1.2,2.9,13.1,32.6,16,38.4,6,11.7,9.4,12.6,12.3,12.6s.3,0,.5,0c3.1-.1,8-11.1,10.1-18.7,1.3-4.7,2.9-10.1,4.9-15,.7-1.6,2.3-2.7,4.1-2.7s1.8.3,2.6.9c1.6,1.2,2.3,3.3,1.5,5.1-1.9,4.6-3.4,9.9-4.6,14.2-3.6,12.8-7.2,22.7-16.7,24.5-1.1.2-2.2.3-3.2.3Z"/>
    <path class="st1" d="M192.3,97.8l-6.1-1.4c-.6-.1-1-.6-1.2-1.2l-1.4-6.1c-.4-1.6-2.6-1.6-3,0l-1.4,6.1c-.1.6-.6,1-1.2,1.2l-6.1,1.4c-1.6.4-1.6,2.6,0,3l6.1,1.4c.6.1,1,.6,1.2,1.2l1.4,6.1c.4,1.6,2.6,1.6,3,0l1.4-6.1c.1-.6.6-1,1.2-1.2l6.1-1.4c1.6-.4,1.6-2.6,0-3Z"/>
    <path class="st3" d="M103.3,196.2l-6.9-1.5c-.7-.1-1.2-.7-1.3-1.3l-1.5-6.9c-.4-1.8-3-1.8-3.4,0l-1.5,6.9c-.1.7-.7,1.2-1.3,1.3l-6.9,1.5c-1.8.4-1.8,3,0,3.4l6.9,1.5c.7.1,1.2.7,1.3,1.3l1.5,6.9c.4,1.8,3,1.8,3.4,0l1.5-6.9c.1-.7.7-1.2,1.3-1.3l6.9-1.5c1.8-.4,1.8-3,0-3.4Z"/>
    <path class="st1" d="M166.3,107.6c-2.7-.7-5.5,1-6.2,3.7-.7,2.7,1,5.5,3.7,6.2,2.7.7,5.5-1,6.2-3.7.7-2.7-1-5.5-3.7-6.2Z"/>
    <path class="st1" d="M166.5,82.8c-.9-3.3-7.2-3.5-9,2.4-1.8-5.9-8.1-5.7-9-2.4-1.6,6.1,9,12.6,9,12.6,0,0,10.6-6.5,9-12.6Z"/>
    <path class="st1" d="M164.4,195c-1.5,0-3.1,0-4.6-.3-12.3-1.4-22.5-8.5-27.3-18.9-.4-.9-.5-2-.1-2.9.4-1,1.1-1.7,2-2.2.5-.2,1.1-.4,1.6-.4,1.5,0,2.8.9,3.5,2.2,3.7,8,11.7,13.4,21.3,14.6,1.2.1,2.5.2,3.7.2,10.6,0,20.8-5.2,28-14.3.7-.9,1.8-1.5,3-1.5s1.7.3,2.4.8c1.7,1.3,1.9,3.7.6,5.4-8.7,11-21.1,17.3-34,17.3Z"/>
  </g>
  <g>
    <path class="st5" d="M311.8,124.2c.3.5.5,1,.5,1.5,0,.4,0,1.1,0,1.9v30.5c0,2.5-.7,4-2.1,4.4-.7.2-1.6.3-2.6.3s-1.9,0-2.5-.3c-.6-.2-1.1-.4-1.4-.7-.3-.3-.6-.6-.8-1.1-.2-.6-.3-1.6-.3-2.9v-18.4c-.9,1.1-2.3,2.9-4,5.4s-2.9,4-3.3,4.6c-.5.6-.8,1.1-1,1.3-.2.2-.6.6-1.3,1-.7.4-1.5.6-2.3.6s-1.6-.2-2.3-.6c-.7-.4-1.2-.8-1.5-1.1l-.4-.6c-.7-.9-2.2-2.9-4.3-5.8-2.2-3-3.3-4.6-3.5-4.8v18.5c0,.8,0,1.5,0,1.9,0,.4-.2.9-.5,1.4-.5,1-2,1.5-4.3,1.5s-3.6-.5-4.2-1.5c-.3-.5-.5-1-.5-1.4,0-.4,0-1.1,0-2v-30.5c0-.8,0-1.5,0-1.9,0-.4.2-.9.5-1.5.5-1,2-1.4,4.3-1.4s1.8.1,2.6.4c.7.2,1.2.5,1.4.7l.3.3,12.5,16.4c6.2-8.2,10.4-13.7,12.5-16.3.6-1,2.1-1.5,4.4-1.5s3.7.5,4.3,1.5Z"/>
    <path class="st5" d="M326.7,127.5c0-.8,0-1.5,0-1.9,0-.4.2-.9.5-1.5.5-1,1.9-1.5,4.3-1.5s4.1.7,4.6,2c.2.6.3,1.6.3,2.9v30.5c0,.9,0,1.5,0,1.9,0,.4-.2.9-.5,1.4-.5,1-1.9,1.5-4.3,1.5s-4.1-.7-4.5-2.1c-.2-.6-.3-1.5-.3-2.8v-30.5Z"/>
    <path class="st5" d="M371.6,138.6h9.7c2,0,3.2.6,3.6,1.5.4.7.5,1.7.5,3.1v12.1c0,1.2-.5,2.3-1.5,3.3-3.1,3.2-7.7,4.8-13.8,4.8s-10.2-2.1-14.2-6.2c-4-4.1-6-9.1-6-14.9s2-10.7,6.1-14.6c4.1-3.9,8.9-5.8,14.5-5.8s8.4,1.4,12.2,4.3c1,.7,1.5,1.5,1.5,2.4s-.4,1.9-1.3,3.1c-1.4,1.9-2.7,2.9-3.9,2.9s-1.8-.5-3.3-1.5c-1.5-1-3.4-1.5-5.5-1.5s-5.3,1-7.4,2.9c-2.2,2-3.2,4.5-3.2,7.7s1.1,5.9,3.3,8.1c2.2,2.2,4.7,3.3,7.5,3.3s3.8-.3,5.4-1v-6h-4.3c-1.1,0-1.9-.1-2.4-.4-.5-.3-.8-.7-.9-1.3-.1-.6-.2-1.3-.2-2.3s0-1.7.2-2.3c.2-.6.5-1,.9-1.2.7-.3,1.5-.5,2.6-.5Z"/>
    <path class="st5" d="M424.6,124.2c.3-.5.8-.9,1.5-1.2.7-.2,1.6-.3,2.6-.3s1.9,0,2.5.3c.6.2,1.1.4,1.4.7.3.3.6.6.8,1.1.2.6.3,1.6.3,2.9v30.5c0,.8,0,1.5,0,1.9,0,.4-.2.9-.5,1.5-.5,1-1.9,1.5-4.3,1.5s-4.1-.7-4.5-2c-.2-.6-.3-1.6-.3-2.9v-11.1h-14.5v11.2c0,.8,0,1.5,0,1.9,0,.4-.2.9-.5,1.5-.5,1-1.9,1.5-4.3,1.5s-4.1-.7-4.5-2c-.2-.6-.3-1.6-.3-2.9v-30.5c0-.8,0-1.5,0-1.9,0-.4.2-.9.5-1.5.5-1,1.9-1.5,4.3-1.5s4.1.7,4.6,2c.2.6.3,1.6.3,2.9v11.2h14.5v-11.3c0-.8,0-1.5,0-1.9,0-.4.2-.9.5-1.5Z"/>
    <path class="st5" d="M450.6,122.6h30.5c1.2,0,2,.1,2.6.4.5.3.9.7,1.1,1.3.2.6.3,1.4.3,2.3s0,1.7-.3,2.3c-.2.6-.5,1-.9,1.2-.7.3-1.6.5-2.8.5h-10.5v27.6c0,.8,0,1.5,0,1.9,0,.4-.2.9-.5,1.4-.3.5-.8.9-1.5,1.1-.7.2-1.6.3-2.7.3s-2-.1-2.7-.3c-.7-.2-1.2-.6-1.4-1.1-.3-.5-.4-1-.5-1.4,0-.4,0-1.1,0-1.9v-27.6h-10.5c-1.2,0-2-.1-2.6-.4s-.9-.7-1.1-1.3c-.2-.6-.3-1.4-.3-2.3s0-1.7.3-2.3c.2-.6.5-1,.9-1.2.7-.3,1.6-.5,2.8-.5Z"/>
    <path class="st5" d="M529.9,123.4c1.8,1.2,2.7,2.5,2.7,3.6s-.4,1.7-1.3,2.9l-11.9,17.7v10.5c0,.8,0,1.5,0,1.9,0,.4-.2.9-.5,1.5-.3.5-.8.9-1.5,1.2-.7.2-1.6.3-2.8.3s-2.1-.1-2.8-.3c-.7-.2-1.2-.6-1.5-1.2-.3-.6-.5-1.1-.5-1.5,0-.4,0-1.1,0-1.9v-10.4l-11.9-17.7c-.8-1.2-1.3-2.2-1.3-2.9,0-1.2.8-2.3,2.4-3.4,1.6-1.1,2.8-1.6,3.5-1.6s1.2.1,1.6.4c.6.4,1.3,1.2,2,2.3l8.5,13.6,8.5-13.6c.7-1.1,1.3-1.8,1.8-2.2.5-.3,1.1-.5,1.8-.5s1.7.5,3.2,1.4Z"/>
  </g>
  <g>
    <path class="st5" d="M269.4,213.4c-.9-1.1-1.3-2-1.3-2.8s.7-1.9,2.1-3.3c.8-.8,1.7-1.2,2.6-1.2s2.2.8,3.8,2.5c.5.6,1.1,1.1,2,1.6.9.5,1.6.8,2.4.8,3.1,0,4.6-1.2,4.6-3.7s-.4-1.4-1.3-1.9c-.8-.5-1.9-.9-3.1-1.1-1.3-.2-2.6-.6-4-1.1-1.4-.5-2.8-1.1-4-1.8-1.3-.7-2.3-1.8-3.1-3.3-.8-1.5-1.3-3.3-1.3-5.4s1.1-5.4,3.2-7.6c2.2-2.2,5.1-3.2,8.8-3.2s3.8.3,5.4.8c1.6.5,2.8,1,3.4,1.6l1.2.9c1,1,1.5,1.8,1.5,2.4s-.4,1.6-1.2,2.7c-1.1,1.6-2.3,2.5-3.5,2.5s-1.5-.3-2.6-1c0,0-.3-.2-.6-.5-.3-.3-.5-.5-.8-.6-.7-.4-1.6-.6-2.6-.6s-2,.3-2.7.8c-.7.5-1.1,1.2-1.1,2.1s.4,1.6,1.3,2.2c.8.6,1.9.9,3.1,1.1,1.2.2,2.6.5,4.1.9s2.8.9,4.1,1.5c1.2.6,2.3,1.6,3.1,3.1.8,1.5,1.3,3.3,1.3,5.4s-.4,4-1.3,5.6c-.9,1.6-2,2.9-3.4,3.8-2.7,1.7-5.5,2.6-8.5,2.6s-3-.2-4.4-.6c-1.4-.4-2.5-.8-3.4-1.4-1.7-1.1-3-2.1-3.7-3.1l-.4-.5Z"/>
    <path class="st5" d="M354.8,183.7c.3.5.4.9.5,1.3,0,.4,0,1,0,1.7v27.4c0,2.3-.6,3.6-1.9,4-.6.2-1.4.3-2.4.3s-1.7,0-2.3-.2c-.6-.2-1-.4-1.3-.6-.3-.2-.5-.6-.7-1-.2-.6-.2-1.4-.2-2.6v-16.5c-.8,1-2,2.6-3.6,4.9-1.6,2.2-2.6,3.6-3,4.2-.4.6-.7.9-.9,1.2-.2.2-.6.5-1.2.9-.6.4-1.3.6-2.1.6s-1.4-.2-2-.5c-.6-.3-1-.7-1.3-1l-.4-.5c-.7-.8-2-2.6-3.9-5.3-1.9-2.7-3-4.1-3.2-4.3v16.6c0,.8,0,1.3,0,1.7,0,.4-.2.8-.5,1.3-.5.9-1.8,1.3-3.8,1.3s-3.3-.4-3.7-1.3c-.3-.5-.4-.9-.5-1.3s0-1,0-1.8v-27.4c0-.8,0-1.3,0-1.7,0-.4.2-.8.5-1.3.5-.9,1.8-1.3,3.8-1.3s1.7.1,2.3.3c.6.2,1.1.4,1.3.7l.3.3,11.2,14.7c5.6-7.4,9.3-12.3,11.2-14.7.6-.9,1.9-1.3,4-1.3s3.4.4,3.8,1.3Z"/>
    <path class="st5" d="M378,186.7c0-.8,0-1.3,0-1.7,0-.4.2-.8.5-1.3.5-.9,1.7-1.3,3.8-1.3s3.7.6,4.1,1.8c.2.6.2,1.4.2,2.6v27.4c0,.8,0,1.4,0,1.7s-.2.8-.5,1.3c-.5.9-1.7,1.3-3.8,1.3s-3.7-.6-4-1.9c-.2-.5-.3-1.4-.3-2.5v-27.4Z"/>
    <path class="st5" d="M418.2,211.2h13.4c1.1,0,1.9.1,2.4.4.5.2.8.6,1,1.2.2.5.2,1.2.2,2.1s0,1.6-.2,2.1c-.2.5-.4.9-.8,1.1-.6.3-1.5.5-2.6.5h-17.8c-2.3,0-3.7-.6-4-1.9-.2-.5-.3-1.4-.3-2.5v-27.4c0-.8,0-1.3,0-1.7,0-.4.2-.8.5-1.3.5-.9,1.7-1.3,3.8-1.3s3.7.6,4.1,1.8c.2.6.2,1.4.2,2.6v24.5Z"/>
    <path class="st5" d="M465.9,209.8h15.2c.8,0,1.3,0,1.7,0s.8.2,1.3.5c.9.5,1.3,1.7,1.3,3.8s-.6,3.7-1.8,4c-.6.2-1.4.3-2.6.3h-19.5c-2.3,0-3.7-.6-4-1.9-.2-.5-.3-1.4-.3-2.5v-27.4c0-1.7.3-2.8.9-3.4.6-.6,1.8-.9,3.6-.9h19.4c.8,0,1.3,0,1.7,0,.4,0,.8.2,1.3.5.9.5,1.3,1.7,1.3,3.8s-.6,3.7-1.8,4c-.6.2-1.4.3-2.6.3h-15.1v5h9.8c.8,0,1.3,0,1.7,0,.4,0,.8.2,1.3.5.9.5,1.3,1.7,1.3,3.8s-.6,3.7-1.9,4c-.6.2-1.4.3-2.6.3h-9.7v5Z"/>
    <path class="st5" d="M507.9,213.4c-.9-1.1-1.3-2-1.3-2.8s.7-1.9,2.1-3.3c.8-.8,1.7-1.2,2.6-1.2s2.2.8,3.8,2.5c.5.6,1.1,1.1,2,1.6.9.5,1.6.8,2.4.8,3.1,0,4.6-1.2,4.6-3.7s-.4-1.4-1.3-1.9c-.8-.5-1.9-.9-3.1-1.1-1.3-.2-2.6-.6-4-1.1-1.4-.5-2.8-1.1-4-1.8-1.3-.7-2.3-1.8-3.1-3.3-.8-1.5-1.3-3.3-1.3-5.4s1.1-5.4,3.2-7.6,5.1-3.2,8.8-3.2,3.8.3,5.4.8c1.6.5,2.8,1,3.4,1.6l1.2.9c1,1,1.5,1.8,1.5,2.4s-.4,1.6-1.2,2.7c-1.1,1.6-2.3,2.5-3.5,2.5s-1.5-.3-2.6-1c0,0-.3-.2-.6-.5-.3-.3-.5-.5-.8-.6-.7-.4-1.6-.6-2.6-.6s-2,.3-2.7.8c-.7.5-1.1,1.2-1.1,2.1s.4,1.6,1.3,2.2c.8.6,1.9.9,3.1,1.1,1.2.2,2.6.5,4.1.9s2.8.9,4.1,1.5c1.2.6,2.3,1.6,3.1,3.1.8,1.5,1.3,3.3,1.3,5.4s-.4,4-1.3,5.6c-.9,1.6-2,2.9-3.4,3.8-2.7,1.7-5.5,2.6-8.5,2.6s-3-.2-4.4-.6c-1.4-.4-2.5-.8-3.4-1.4-1.7-1.1-3-2.1-3.7-3.1l-.4-.5Z"/>
  </g>
  <path class="st2" d="M271,241.2h5.9c3.1,0,5.8,1.1,8.1,3.4,2.3,2.2,3.5,5,3.5,8.2s-1.1,6-3.4,8.4c-2.3,2.3-5.1,3.5-8.3,3.5h-5.8c-1.3,0-2.1-.3-2.4-.8-.3-.4-.4-1.1-.4-2v-17.8c0-.5,0-.9,0-1.1s.1-.5.3-.8c.3-.6,1.1-.9,2.5-.9ZM281,257.2c1.2-1.1,1.9-2.6,1.9-4.3s-.6-3.2-1.8-4.3c-1.2-1.2-2.6-1.7-4.2-1.7h-3.1v12.1h3.1c1.5,0,2.9-.6,4.2-1.7Z"/>
  <path class="st1" d="M307.1,259h9.8c.5,0,.9,0,1.1,0s.5.1.8.3c.6.3.9,1.1.9,2.5s-.4,2.4-1.2,2.6c-.4.1-.9.2-1.7.2h-12.6c-1.5,0-2.4-.4-2.6-1.2-.1-.3-.2-.9-.2-1.6v-17.8c0-1.1.2-1.8.6-2.2.4-.4,1.2-.6,2.3-.6h12.6c.5,0,.9,0,1.1,0s.5.1.8.3c.6.3.9,1.1.9,2.5s-.4,2.4-1.2,2.6c-.4.1-.9.2-1.7.2h-9.8v3.2h6.3c.5,0,.9,0,1.1,0s.5.1.8.3c.6.3.9,1.1.9,2.5s-.4,2.4-1.2,2.6c-.4.1-.9.2-1.7.2h-6.3v3.2Z"/>
  <path class="st7" d="M347.9,242.2c.2-.4.5-.6.9-.8s.9-.2,1.5-.2,1.1,0,1.5.2c.4.1.6.2.8.4.2.1.3.4.4.7.1.3.2.9.2,1.6v17.7c0,.5,0,.9,0,1.1,0,.2-.1.5-.3.8-.3.6-1.1.9-2.5.9s-1.4,0-1.7-.2c-.3-.1-.6-.3-.8-.6-4.8-6.4-7.9-10.6-9.5-12.5v10.5c0,.5,0,.9,0,1.1,0,.2-.1.5-.3.8-.3.6-1.1.9-2.5.9s-2.1-.3-2.4-.9c-.2-.3-.3-.6-.3-.9s0-.6,0-1.1v-17.8c0-.8.1-1.4.3-1.8.2-.4.5-.6.9-.8s.9-.2,1.6-.2,1.1,0,1.5.2c.4.1.6.3.8.4,0,0,.3.3.7.8,4.5,6.1,7.5,10.1,9,12.1v-10.8c0-.8.1-1.4.3-1.8Z"/>
  <path class="st2" d="M368.1,241.2h17.8c.7,0,1.2,0,1.5.2.3.2.5.4.6.8.1.3.2.8.2,1.3s0,1-.2,1.3c-.1.3-.3.6-.5.7-.4.2-.9.3-1.6.3h-6.1v16.1c0,.5,0,.9,0,1.1,0,.2-.1.5-.3.8-.2.3-.4.5-.8.7-.4.1-.9.2-1.6.2s-1.2,0-1.6-.2c-.4-.1-.7-.3-.8-.7-.2-.3-.3-.6-.3-.8,0-.2,0-.6,0-1.1v-16h-6.1c-.7,0-1.2,0-1.5-.2s-.5-.4-.6-.8c-.1-.3-.2-.8-.2-1.3s0-1,.2-1.3c.1-.3.3-.6.5-.7.4-.2.9-.3,1.6-.3Z"/>
  <path class="st0" d="M400.8,244c0-.5,0-.9,0-1.1,0-.2.1-.5.3-.8.3-.6,1.1-.9,2.5-.9s2.4.4,2.7,1.2c.1.4.2.9.2,1.7v17.8c0,.5,0,.9,0,1.1,0,.2-.1.5-.3.8-.3.6-1.1.9-2.5.9s-2.4-.4-2.6-1.2c-.1-.3-.2-.9-.2-1.6v-17.8Z"/>
  <path class="st6" d="M420.2,261.3c-.6-.7-.8-1.3-.8-1.8s.5-1.3,1.4-2.2c.5-.5,1.1-.8,1.7-.8s1.4.5,2.5,1.6c.3.4.7.7,1.3,1,.6.3,1.1.5,1.5.5,2,0,3-.8,3-2.4s-.3-.9-.8-1.2c-.5-.3-1.2-.6-2-.7-.8-.1-1.7-.4-2.6-.7-.9-.3-1.8-.7-2.6-1.2s-1.5-1.2-2-2.1c-.5-1-.8-2.1-.8-3.5s.7-3.5,2.1-4.9,3.3-2.1,5.7-2.1,2.4.2,3.5.5c1.1.3,1.8.7,2.2,1l.8.6c.7.6,1,1.1,1,1.6s-.3,1-.8,1.8c-.7,1.1-1.5,1.6-2.2,1.6s-1-.2-1.7-.6c0,0-.2-.1-.4-.3-.2-.2-.3-.3-.5-.4-.4-.3-1-.4-1.7-.4s-1.3.2-1.7.5c-.5.3-.7.8-.7,1.4s.3,1.1.8,1.4c.5.4,1.2.6,2,.7.8.1,1.7.3,2.7.6,1,.3,1.8.6,2.7,1,.8.4,1.5,1,2,2,.5.9.8,2.1.8,3.5s-.3,2.6-.8,3.7c-.6,1.1-1.3,1.9-2.2,2.4-1.7,1.1-3.6,1.7-5.5,1.7s-1.9-.1-2.8-.4-1.6-.5-2.2-.9c-1.1-.7-1.9-1.3-2.4-2l-.3-.4Z"/>
  <path class="st1" d="M449.3,241.2h17.8c.7,0,1.2,0,1.5.2.3.2.5.4.6.8.1.3.2.8.2,1.3s0,1-.2,1.3-.3.6-.5.7c-.4.2-.9.3-1.6.3h-6.1v16.1c0,.5,0,.9,0,1.1,0,.2-.1.5-.3.8-.2.3-.4.5-.8.7-.4.1-.9.2-1.6.2s-1.2,0-1.6-.2c-.4-.1-.7-.3-.8-.7-.2-.3-.3-.6-.3-.8,0-.2,0-.6,0-1.1v-16h-6.1c-.7,0-1.2,0-1.5-.2-.3-.2-.5-.4-.6-.8-.1-.3-.2-.8-.2-1.3s0-1,.2-1.3c.1-.3.3-.6.5-.7.4-.2.9-.3,1.6-.3Z"/>
  <path class="st4" d="M499.9,260.7c.3.8.5,1.3.5,1.7,0,.8-.7,1.5-2,2-.7.3-1.2.4-1.6.4s-.8-.1-1-.3c-.3-.2-.5-.4-.6-.6-.2-.4-1-2.3-2.5-5.8h-1c0,0-4,0-4,0v3.6c0,.5,0,.9,0,1.1,0,.2-.1.5-.3.8-.3.6-1.1.9-2.5.9s-2.4-.4-2.6-1.2c-.1-.4-.2-.9-.2-1.7v-17.7c0-.5,0-.9,0-1.1,0-.2.1-.5.3-.8.3-.6,1.1-.9,2.5-.9h6.9c1.9,0,3.7.7,5.5,2,.9.7,1.6,1.6,2.1,2.7.6,1.1.8,2.4.8,3.8,0,2.4-.8,4.4-2.4,5.9.5,1.1,1.2,2.8,2.2,5ZM487.6,252.5h4.1c.6,0,1.2-.2,1.9-.7.6-.5.9-1.2.9-2.1s-.3-1.6-.9-2.1c-.6-.5-1.3-.7-1.9-.7h-4v5.7Z"/>
  <path class="st2" d="M530.9,241.7c1,.7,1.6,1.4,1.6,2.1s-.2,1-.7,1.7l-6.9,10.3v6.1c0,.5,0,.9,0,1.1,0,.2-.1.5-.3.8-.2.3-.5.5-.9.7-.4.1-.9.2-1.6.2s-1.2,0-1.6-.2c-.4-.1-.7-.4-.9-.7-.2-.3-.3-.6-.3-.9,0-.2,0-.6,0-1.1v-6l-6.9-10.3c-.5-.7-.7-1.3-.7-1.7,0-.7.5-1.3,1.4-2s1.6-.9,2-.9.7,0,1,.3c.4.2.7.7,1.2,1.3l5,7.9,5-7.9c.4-.6.8-1.1,1.1-1.3.3-.2.6-.3,1-.3s1,.3,1.9.8Z"/>
  <path class="st1" d="M188,269.7c-2.1,0-5.8-3.9-.2-8.1.9-.7,1.8-1.5,2.8-2.3,14.5-12.6,25.6-34.8,34.2-67.9,6.5-25,9.2-53.6.9-61.2l-.2-.2-.2-.2c-1.8-1.3-4.6-3.1-8.7-3.1s-9.4,2-18.5,6.6c-7.1,3.6-16,8-26.3,10.1-2,.4-4.1.6-6,.6-10.6,0-19-5.8-27.2-11.3-8.9-6.1-13.8-8.8-19.3-8.8s-6.5,1.1-10,3.3c-14,9.1-8.6,29.9-5.3,39.1s3.5,9.1,3.6,9.2c.5,1.1.6,2.2.3,3.4-.4,1.1-1.1,2-2.2,2.6-.6.3-1.3.5-2,.5-1.7,0-3.2-.9-3.9-2.4-.8-1.6-3.4-8.1-4.1-9.9-6-15.1-8.8-38.3,8.9-49.7,4.9-3.2,9.7-4.7,14.6-4.7,9.4,0,18.1,6,24.4,10.3,8.6,5.9,14.8,9.8,22.3,9.8s2.8-.1,4.2-.4c9.2-1.9,16.8-5.7,24.1-9.4,7.1-3.5,15.1-7.6,22.8-7.6s9.3,1.6,13.7,4.9c10.8,8.1,12.2,31.6,4,66-7,29.3-25.5,77.1-45.7,80.8-.3,0-.5,0-.8,0Z"/>
  <path class="st2" d="M146.9,268.2c-5.7,0-9-3.5-11.7-6.2-7.4-7.7-12.8-21.7-17.6-34-1.1-2.9-5-13-6.1-15.8-.8-2-.2-4.4,1.4-5.5.8-.5,1.7-.8,2.6-.8,1.8,0,3.4,1.1,4.1,2.7,1.2,2.9,13.1,32.6,16,38.4,6,11.7,9.4,12.6,12.3,12.6s.3,0,.5,0c3.1-.1,8-11.1,10.1-18.7,1.3-4.7,2.9-10.1,4.9-15,.7-1.6,2.3-2.7,4.1-2.7s1.8.3,2.6.9c1.6,1.2,2.3,3.3,1.5,5.1-1.9,4.6-3.4,9.9-4.6,14.2-3.6,12.8-7.2,22.7-16.7,24.5-1.1.2-2.2.3-3.2.3Z"/>
  <path class="st1" d="M192.3,97.8l-6.1-1.4c-.6-.1-1-.6-1.2-1.2l-1.4-6.1c-.4-1.6-2.6-1.6-3,0l-1.4,6.1c-.1.6-.6,1-1.2,1.2l-6.1,1.4c-1.6.4-1.6,2.6,0,3l6.1,1.4c.6.1,1,.6,1.2,1.2l1.4,6.1c.4,1.6,2.6,1.6,3,0l1.4-6.1c.1-.6.6-1,1.2-1.2l6.1-1.4c1.6-.4,1.6-2.6,0-3Z"/>
  <path class="st2" d="M103.3,196.2l-6.9-1.5c-.7-.1-1.2-.7-1.3-1.3l-1.5-6.9c-.4-1.8-3-1.8-3.4,0l-1.5,6.9c-.1.7-.7,1.2-1.3,1.3l-6.9,1.5c-1.8.4-1.8,3,0,3.4l6.9,1.5c.7.1,1.2.7,1.3,1.3l1.5,6.9c.4,1.8,3,1.8,3.4,0l1.5-6.9c.1-.7.7-1.2,1.3-1.3l6.9-1.5c1.8-.4,1.8-3,0-3.4Z"/>
  <path class="st1" d="M166.3,107.6c-2.7-.7-5.5,1-6.2,3.7-.7,2.7,1,5.5,3.7,6.2,2.7.7,5.5-1,6.2-3.7.7-2.7-1-5.5-3.7-6.2Z"/>
  <path class="st1" d="M166.5,82.8c-.9-3.3-7.2-3.5-9,2.4-1.8-5.9-8.1-5.7-9-2.4-1.6,6.1,9,12.6,9,12.6,0,0,10.6-6.5,9-12.6Z"/>
  <path class="st1" d="M164.4,195c-1.5,0-3.1,0-4.6-.3-12.3-1.4-22.5-8.5-27.3-18.9-.4-.9-.5-2-.1-2.9.4-1,1.1-1.7,2-2.2.5-.2,1.1-.4,1.6-.4,1.5,0,2.8.9,3.5,2.2,3.7,8,11.7,13.4,21.3,14.6,1.2.1,2.5.2,3.7.2,10.6,0,20.8-5.2,28-14.3.7-.9,1.8-1.5,3-1.5s1.7.3,2.4.8c1.7,1.3,1.9,3.7.6,5.4-8.7,11-21.1,17.3-34,17.3Z"/>
</svg>